<svg xmlns="http://www.w3.org/2000/svg" width="96" height="24" viewBox="0 0 96 24" fill="none"><path d="M0.121094 9.18945L11.9491 23.9581H15.6032L3.76808 9.18945H0.121094Z" fill="white"></path><path d="M3.04854 20.9921V15.1121L2.06287 13.7383V20.9921C2.06287 23.0529 1.9995 23.3688 0 23.5955V23.9596H5.11141V23.5955C3.10486 23.3688 3.04854 23.0666 3.04854 20.9921Z" fill="white"></path><path d="M10.6113 9.55453C12.6108 9.77434 12.6742 10.0835 12.6742 12.1579V18.0105L13.6528 19.3843V12.1579C13.6528 10.0972 13.7162 9.77434 15.7157 9.55453V9.18359H10.6113V9.55453Z" fill="white"></path><path d="M28.9154 22.5859C24.3672 22.5859 21.4243 19.062 21.4243 13.0996C21.4243 6.07928 25.0994 3.2698 28.6549 3.2698C32.2103 3.2698 34.4703 4.87031 35.5546 9.65811H36.0897L35.4701 3.3797C33.4781 2.6103 31.3534 2.22087 29.2111 2.23255C23.0718 2.23255 17.8125 6.35405 17.8125 13.0721C17.8125 19.0002 21.6918 23.9597 28.3733 23.9597C33.2523 23.9597 36.3079 20.951 37.0683 17.9973L36.2797 17.7156C35.135 20.7193 32.1564 22.6779 28.8731 22.5859" fill="white"></path><path d="M52.0995 19.4603V13.3536C52.0995 9.5756 50.1352 7.91326 47.5795 7.91326C45.4673 7.91326 43.9325 9.28709 42.9046 10.4892V6.27841C42.9046 3.32467 42.9046 1.51808 42.968 0L37.6172 1.75163V2.26682C39.9406 2.26682 39.9687 2.26682 39.9687 5.10378V19.4603C39.9687 22.3866 39.9687 22.8399 37.6172 23.0735V23.5887H45.2773V23.0735C42.9539 22.8399 42.9257 22.3866 42.9257 19.4603V11.2654C43.7099 10.3378 44.8985 9.82807 46.1292 9.89158C48.1568 9.89158 49.1847 11.2654 49.1847 13.9032V19.3985C49.1847 22.3247 49.1847 22.7781 46.8332 23.0117V23.5268H54.4722V23.0117C52.1488 22.7781 52.1206 22.3247 52.1206 19.3985" fill="white"></path><path d="M64.3433 20.9516C63.6351 21.7641 62.6183 22.2601 61.5271 22.3254C59.8677 22.2476 58.5351 20.9622 58.4364 19.3442C58.3519 18.1146 58.9925 17.4277 60.2598 16.6515C61.5746 15.8758 62.9722 15.2424 64.4278 14.7625L64.3433 20.9516ZM68.1874 22.0987C67.3989 22.0987 67.075 21.8377 67.1032 20.2372L67.2511 12.8116C67.3355 8.97178 64.8995 7.94141 62.1678 7.94141C58.38 7.94141 55.5568 10.6341 55.5568 13.0383H58.5279C58.38 10.8333 58.7602 9.05421 61.4638 9.05421C63.4281 9.05421 64.4912 10.1189 64.4912 13.1276V13.8145C62.2875 14.7281 60.6682 15.4494 59.8797 15.8203C56.7959 17.2835 55.1484 18.3413 55.1484 20.2028C55.1484 22.4697 57.6126 23.9877 59.7881 23.9877C60.6489 24.0517 61.5096 23.8627 62.2593 23.4451C63.0341 22.9587 63.7601 22.4021 64.4278 21.7827C64.4398 22.3772 64.7013 22.9408 65.151 23.342C65.6008 23.7432 66.1996 23.9468 66.8075 23.9053C68.2156 23.9053 68.983 22.7856 69.7786 21.8446L69.4829 21.5629C69.1241 21.8823 68.6703 22.082 68.1874 22.1331" fill="white"></path><path d="M75.7405 19.4611V14.1856C75.7405 11.2387 75.7405 9.43215 75.7969 7.91406L70.4531 9.65883V10.174C72.7695 10.174 72.7976 10.174 72.7976 13.011V19.4611C72.7976 22.3874 72.7976 22.8407 70.4531 23.0743V23.5895H78.085V23.0743C75.7687 22.8407 75.7405 22.3874 75.7405 19.4611Z" fill="white"></path><path d="M74.1219 4.3542C74.6636 4.37494 75.1903 4.17791 75.5789 3.80916C75.9675 3.4404 76.184 2.93222 76.1777 2.40336C76.182 1.87569 75.9647 1.36932 75.5763 1.00207C75.1879 0.634821 74.6624 0.43872 74.1219 0.459393C73.5747 0.433202 73.0401 0.625723 72.6415 0.992545C72.243 1.35937 72.0149 1.86881 72.0098 2.40336C72.0149 2.93848 72.2429 3.44856 72.6412 3.81646C73.0395 4.18436 73.574 4.37847 74.1219 4.3542Z" fill="white"></path><path d="M93.6377 19.4611V13.3544C93.6377 9.5764 91.7578 7.91406 89.2021 7.91406C87.09 7.91406 85.5552 9.28789 84.5272 10.49L84.485 7.91406L79.2539 9.65883V10.174C81.5773 10.174 81.6054 10.174 81.6054 13.011V19.4611C81.6054 22.3874 81.6054 22.8407 79.2539 23.0743V23.5895H86.8929V23.0743C84.5695 22.8407 84.5413 22.3874 84.5413 19.4611V11.2662C85.3255 10.3386 86.5141 9.82887 87.7448 9.89238C89.8569 9.89238 90.7088 11.1494 90.7088 13.904V19.3993C90.7088 22.3255 90.7088 22.7789 88.3643 23.0125V23.5276H95.9962V23.0125C93.6799 22.7789 93.6517 22.3255 93.6517 19.3993" fill="white"></path></svg>